<?xml version="1.0" encoding="UTF-8"?>
<svg version="1.1" xmlns="http://www.w3.org/2000/svg" width="700" height="110">
<path d="M0 0 C16.5 0 33 0 50 0 C50 2.97 50 5.94 50 9 C46.37 9.66 42.74 10.32 39 11 C38.34 15.29 37.68 19.58 37 24 C49.54 24 62.08 24 75 24 C75.23768984 13.59750544 75.23768984 13.59750544 71 10 C68.99110886 9.46580191 68.99110886 9.46580191 66.875 9.375 C63 9 63 9 62 8 C62 5.36 62 2.72 62 0 C78.5 0 95 0 112 0 C112 2.97 112 5.94 112 9 C111.28972656 9.13277344 110.57945312 9.26554687 109.84765625 9.40234375 C108.46900391 9.66724609 108.46900391 9.66724609 107.0625 9.9375 C105.68771484 10.19853516 105.68771484 10.19853516 104.28515625 10.46484375 C102.04710156 10.77714988 102.04710156 10.77714988 101 12 C100.91141354 14.73894085 100.88476521 17.4525327 100.90234375 20.19140625 C100.9037587 21.01124496 100.90517365 21.83108368 100.90663147 22.67576599 C100.91224711 25.30471382 100.92480221 27.93357773 100.9375 30.5625 C100.94251299 32.34049357 100.94707624 34.11848846 100.95117188 35.89648438 C100.96222161 40.26435545 100.97949669 44.63216348 101 49 C104.63616656 50.9789756 107.88425629 51.5251065 112 52 C112 54.97 112 57.94 112 61 C95.5 61 79 61 62 61 C62 58.03 62 55.06 62 52 C63.04800781 51.81824219 63.04800781 51.81824219 64.1171875 51.6328125 C65.48230469 51.38144531 65.48230469 51.38144531 66.875 51.125 C68.23238281 50.88136719 68.23238281 50.88136719 69.6171875 50.6328125 C72.16505988 50.16955297 72.16505988 50.16955297 74 48 C74.33 44.37 74.66 40.74 75 37 C62.79 37 50.58 37 38 37 C38.495 43.435 38.495 43.435 39 50 C42.63 50.66 46.26 51.32 50 52 C50 54.97 50 57.94 50 61 C33.5 61 17 61 0 61 C0 58.03 0 55.06 0 52 C5.445 51.505 5.445 51.505 11 51 C11.07402793 45.48245195 11.12854366 39.96519144 11.16479492 34.44726562 C11.17990325 32.56928474 11.20039094 30.69133924 11.22631836 28.81347656 C11.26261246 26.11774981 11.27970545 23.42248854 11.29296875 20.7265625 C11.30845261 19.88380768 11.32393646 19.04105286 11.33988953 18.17276001 C11.37589136 15.56277725 11.37589136 15.56277725 11 12 C8.09907498 10.06604999 7.10325263 9.69868059 3.8125 9.375 C2.554375 9.25125 1.29625 9.1275 0 9 C0 6.03 0 3.06 0 0 Z " fill="#ED0000" transform="translate(161,47)"/>
<path d="M0 0 C-1.3393316 3.5482766 -2.89568158 6.79025325 -4.8125 10.0625 C-5.29332031 10.89910156 -5.77414063 11.73570313 -6.26953125 12.59765625 C-10.72281141 18.77997521 -16.22194235 20.27505005 -23.2578125 22.19140625 C-24.29962677 22.48495499 -25.34144104 22.77850372 -26.41482544 23.08094788 C-29.93937277 24.06842508 -33.469065 25.03562495 -37 26 C-38.94384826 26.53499366 -40.88769643 27.06998766 -42.83153915 27.60500145 C-51.12543015 29.88507331 -59.42953172 32.12664827 -67.73577881 34.36120605 C-70.63675006 35.14271111 -73.53670536 35.92795181 -76.43668938 36.71311092 C-79.24306973 37.4723911 -82.05008489 38.22930148 -84.85730362 38.98547554 C-86.18999376 39.34477113 -87.52248289 39.70481322 -88.85476303 40.06562614 C-90.6927227 40.56302121 -92.53164051 41.05687178 -94.37060547 41.55053711 C-95.41296356 41.83142685 -96.45532166 42.11231659 -97.52926636 42.40171814 C-100 43 -100 43 -102 43 C-102 43.99 -102 44.98 -102 46 C-101.4513176 45.85712051 -100.90263519 45.71424103 -100.33732605 45.56703186 C-87.55027392 42.23747056 -74.76216499 38.91200775 -61.97271729 35.59165955 C-55.84377957 34.00006984 -49.71592685 32.40445547 -43.58973694 30.80232239 C-40.3478097 29.95526178 -37.10491116 29.11197051 -33.86172485 28.26974487 C-32.37688001 27.8832229 -30.89247881 27.49499244 -29.40853882 27.10501099 C-27.36983966 26.56946942 -25.32968738 26.0398668 -23.2890625 25.51171875 C-22.16193848 25.21740967 -21.03481445 24.92310059 -19.87353516 24.61987305 C-17 24 -17 24 -13 24 C-14.29488098 27.51290676 -15.76594503 30.50958042 -17.9375 33.5625 C-18.44152344 34.30628906 -18.94554687 35.05007812 -19.46484375 35.81640625 C-26.31690601 41.71825956 -36.69524889 42.9788694 -45.34375 44.578125 C-46.47526489 44.79442566 -47.60677979 45.01072632 -48.77258301 45.23358154 C-51.14152443 45.68473246 -53.51129262 46.13156201 -55.88183594 46.57421875 C-59.51942088 47.25362733 -63.15436097 47.94597141 -66.7890625 48.640625 C-69.09881719 49.07886953 -71.40870835 49.51639556 -73.71875 49.953125 C-74.80619507 50.15931458 -75.89364014 50.36550415 -77.01403809 50.57794189 C-78.01938599 50.76523865 -79.02473389 50.9525354 -80.06054688 51.14550781 C-80.9444812 51.31109192 -81.82841553 51.47667603 -82.73913574 51.64727783 C-85 52 -85 52 -88 52 C-88 52.66 -88 53.32 -88 54 C-75.66749082 52.40587549 -63.47353151 50.13736633 -51.25 47.875 C-48.22636349 47.31654598 -45.2025845 46.75891015 -42.17840576 46.20339966 C-40.31060185 45.86020834 -38.44311599 45.51528046 -36.57598877 45.16842651 C-35.74041443 45.01471588 -34.90484009 44.86100525 -34.04394531 44.70263672 C-33.30895813 44.56654999 -32.57397095 44.43046326 -31.81671143 44.29025269 C-30 44 -30 44 -28 44 C-29.43116008 47.2309523 -31.17143857 49.52584984 -33.625 52.0625 C-34.57246094 53.06990234 -34.57246094 53.06990234 -35.5390625 54.09765625 C-41.38914915 58.61986609 -48.46747398 59.64795455 -55.625 60.6875 C-56.44484375 60.81705078 -57.2646875 60.94660156 -58.109375 61.08007812 C-62.44746965 61.73916164 -66.5979746 62.14958339 -71 62 C-71 62.99 -71 63.98 -71 65 C-76.94 65.99 -76.94 65.99 -83 67 C-72.0949681 64.5021994 -65.52224687 65.91423013 -56.0625 71.8125 C-47.32875568 77.34248864 -47.32875568 77.34248864 -46 80 C-53.55396741 80.18602299 -61.10769514 80.32783791 -68.66343689 80.41449738 C-72.17277379 80.45610951 -75.68053489 80.51246481 -79.18896484 80.60351562 C-83.23028958 80.70772998 -87.26998097 80.74600277 -91.3125 80.78125 C-93.18639404 80.84318542 -93.18639404 80.84318542 -95.09814453 80.90637207 C-103.68774968 80.91076828 -103.68774968 80.91076828 -107.53198242 78.24267578 C-109.52152157 76.25381265 -111.25708632 74.20379096 -113 72 C-114.65533995 70.65263027 -116.32012773 69.31665664 -118 68 C-120.8125 65.375 -120.8125 65.375 -123 63 C-123 62.34 -123 61.68 -123 61 C-123.5775 60.731875 -124.155 60.46375 -124.75 60.1875 C-127.07363365 58.9611378 -129.03824646 57.75156566 -131 56 C-131 55.01 -131 54.02 -131 53 C-131.61875 52.896875 -132.2375 52.79375 -132.875 52.6875 C-135 52 -135 52 -137 49 C-136.86843014 46.93875217 -136.86843014 46.93875217 -136 45 C-134.30912876 43.86373043 -134.30912876 43.86373043 -132.1051178 42.97996521 C-130.87810245 42.48355184 -130.87810245 42.48355184 -129.6262989 41.97710991 C-125.21714205 40.33669082 -120.78540381 38.79524512 -116.31811523 37.32055664 C-115.28911606 36.97687546 -114.26011688 36.63319427 -113.19993591 36.27909851 C-109.82092147 35.15176344 -106.43981058 34.03086662 -103.05859375 32.91015625 C-100.68828332 32.12107365 -98.31809177 31.3316339 -95.94801331 30.54185486 C-90.35153806 28.67808988 -84.75367621 26.81853858 -79.15517813 24.96085972 C-73.46618443 23.07280635 -67.77906517 21.17915586 -62.09214687 19.28485966 C-56.01908994 17.26223801 -49.94510329 15.24241493 -43.87109375 13.22265625 C-42.73149137 12.8434157 -41.591889 12.46417515 -40.41775322 12.07344246 C-19.73274934 5.19313185 -19.73274934 5.19313185 -9.63305664 1.98608398 C-7.79439781 1.40128517 -7.79439781 1.40128517 -5.91859436 0.80467224 C-3 0 -3 0 0 0 Z M-95 55 C-95 55.33 -95 55.66 -95 56 C-93.35 56 -91.7 56 -90 56 C-90 55.67 -90 55.34 -90 55 C-91.65 55 -93.3 55 -95 55 Z M-100 56 C-96 57 -96 57 -96 57 Z M-105 57 C-101 58 -101 58 -101 58 Z M-110 58 C-106 59 -106 59 -106 59 Z M-108 69 C-108 69.33 -108 69.66 -108 70 C-105.36 70 -102.72 70 -100 70 C-100 69.67 -100 69.34 -100 69 C-102.64 69 -105.28 69 -108 69 Z " fill="#ED0000" transform="translate(147,28)"/>
<path d="M0 0 C6.4594831 -0.12370114 12.91827515 -0.2143889 19.37866211 -0.2746582 C21.5757244 -0.29978509 23.77270324 -0.33389246 25.96948242 -0.37719727 C29.12960405 -0.43792762 32.28861957 -0.46622833 35.44921875 -0.48828125 C36.91979988 -0.52699089 36.91979988 -0.52699089 38.42008972 -0.56648254 C45.26407205 -0.5692902 45.26407205 -0.5692902 48.97045898 2.29785156 C49.64020752 3.18956055 50.30995605 4.08126953 51 5 C51.79929932 5.94178101 51.79929932 5.94178101 52.61474609 6.90258789 C53.07961426 7.50321045 53.54448242 8.10383301 54.0234375 8.72265625 C54.56274902 9.41697754 55.10206055 10.11129883 55.65771484 10.82666016 C56.22441895 11.5644873 56.79112305 12.30231445 57.375 13.0625 C57.97135254 13.83384277 58.56770508 14.60518555 59.18212891 15.39990234 C66.21664471 24.52778484 73.11604359 33.7583249 80 43 C80.07420211 38.92497206 80.1286257 34.85020608 80.16479492 30.7746582 C80.17987397 29.38852081 80.2003405 28.00243106 80.22631836 26.61645508 C80.26273716 24.62341854 80.27813018 22.63003277 80.29296875 20.63671875 C80.3086792 19.43748779 80.32438965 18.23825684 80.34057617 17.00268555 C80.25526066 14.01750403 80.25526066 14.01750403 78.609375 12.1171875 C76.62543525 10.7399866 75.20797155 10.50885013 72.8125 10.3125 C70.9253125 10.1578125 70.9253125 10.1578125 69 10 C69 6.7 69 3.4 69 0 C81.54 0 94.08 0 107 0 C107 2.97 107 5.94 107 9 C106 10 106 10 102.5625 10.375 C101.386875 10.58125 100.21125 10.7875 99 11 C96.87205832 14.19191253 96.73900457 15.07320984 96.68115234 18.74682617 C96.66128265 19.70759567 96.64141296 20.66836517 96.62094116 21.6582489 C96.60938995 22.69270645 96.59783875 23.727164 96.5859375 24.79296875 C96.56657135 25.85413406 96.5472052 26.91529938 96.5272522 28.00862122 C96.46742167 31.40149878 96.42105679 34.7944102 96.375 38.1875 C96.33682345 40.48634301 96.29777191 42.78517167 96.2578125 45.08398438 C96.16171732 50.72252895 96.07667994 56.36115979 96 62 C91.14387639 62.19875516 86.2901499 62.34337321 81.4309082 62.43945312 C79.78074889 62.47952358 78.13087078 62.53400048 76.48168945 62.60351562 C62.90030872 63.16137361 62.90030872 63.16137361 58.55639648 60.5065918 C56.71810772 58.44591493 55.38243307 56.3874986 54 54 C52.88162267 52.4966507 51.74973874 51.00326746 50.60546875 49.51953125 C49.46287841 47.95289865 48.3236308 46.38382339 47.1875 44.8125 C45.96981479 43.14375375 44.75105792 41.47578898 43.53125 39.80859375 C42.93699219 38.99632324 42.34273438 38.18405273 41.73046875 37.34716797 C35.74866384 28.84138579 35.74866384 28.84138579 29 21 C29 30.57 29 40.14 29 50 C32.3015148 51.10050493 35.62380498 52.15595125 39 53 C39 55.97 39 58.94 39 62 C26.13 62 13.26 62 0 62 C0 59.03 0 56.06 0 53 C1.06541016 52.80083984 1.06541016 52.80083984 2.15234375 52.59765625 C3.07144531 52.42105469 3.99054688 52.24445313 4.9375 52.0625 C5.85402344 51.88847656 6.77054687 51.71445313 7.71484375 51.53515625 C9.95289844 51.22285012 9.95289844 51.22285012 11 50 C11.08861992 47.1883662 11.11522355 44.40141745 11.09765625 41.58984375 C11.0962413 40.74780899 11.09482635 39.90577423 11.09336853 39.03822327 C11.08775263 36.33794665 11.07519748 33.63775172 11.0625 30.9375 C11.05748705 29.11132932 11.05292379 27.28515734 11.04882812 25.45898438 C11.03777804 20.97262458 11.02050279 16.48632616 11 12 C7.37 11.01 3.74 10.02 0 9 C0 6.03 0 3.06 0 0 Z " fill="#EE0000" transform="translate(378,46)"/>
<path d="M0 0 C9.60604164 -0.06975571 19.211995 -0.12294041 28.8182354 -0.15543652 C33.27963128 -0.17103929 37.74085285 -0.19217814 42.20214844 -0.22631836 C46.51397522 -0.25910527 50.82563516 -0.27689346 55.13757706 -0.28463173 C56.77607979 -0.29014075 58.41457422 -0.30089785 60.05300522 -0.31719017 C72.70621196 -0.43791669 84.07670274 0.25307832 94 9 C100.15383381 16.2343785 102.53822706 23.6393042 102.3046875 33.09765625 C101.44447356 41.29174546 98.44775621 47.71770642 92.3515625 53.27734375 C84.41181148 59.09367299 76.33213736 61.13003771 66.6394043 61.11352539 C65.91690994 61.11367142 65.19441559 61.11381744 64.45002747 61.1139679 C62.07472678 61.11327422 59.69950565 61.10550745 57.32421875 61.09765625 C55.67226708 61.09579013 54.02031485 61.09436714 52.36836243 61.09336853 C48.02992208 61.08955861 43.69151545 61.07974139 39.35308838 61.06866455 C34.92224585 61.0584176 30.49139785 61.05386388 26.06054688 61.04882812 C17.37368248 61.03811771 8.68684544 61.02105966 0 61 C0 58.03 0 55.06 0 52 C0.71027344 51.87882812 1.42054688 51.75765625 2.15234375 51.6328125 C3.53099609 51.38144531 3.53099609 51.38144531 4.9375 51.125 C6.31228516 50.88136719 6.31228516 50.88136719 7.71484375 50.6328125 C8.46894531 50.42398438 9.22304688 50.21515625 10 50 C11.57609609 46.84780781 11.18403761 43.46214526 11.203125 40 C11.20882507 39.20851562 11.21452515 38.41703125 11.22039795 37.6015625 C11.22984818 35.92709695 11.23638203 34.25261279 11.24023438 32.578125 C11.24996178 30.01008993 11.28099266 27.44284787 11.3125 24.875 C11.31902785 23.25000476 11.32427918 21.6250038 11.328125 20 C11.3404718 19.22914062 11.3528186 18.45828125 11.36553955 17.6640625 C11.39052447 15.27247883 11.39052447 15.27247883 11 12 C7.54941314 9.69960876 5.05904498 9.5261725 1 9 C0 8 0 8 -0.09765625 6.15234375 C-0.06510417 4.1015625 -0.03255208 2.05078125 0 0 Z M37 12 C37 24.21 37 36.42 37 49 C40.83625 49.061875 44.6725 49.12375 48.625 49.1875 C49.82334473 49.21481201 51.02168945 49.24212402 52.25634766 49.27026367 C58.93646048 49.32242576 63.14486487 48.61598455 68.75 44.8125 C72.38365606 39.54369872 72.68202438 32.19068287 72 26 C70.84047392 20.7355823 69.45865006 16.34398754 65 13 C61.82212459 11.9407082 59.57411057 11.88541061 56.23828125 11.90234375 C55.23063721 11.90484131 54.22299316 11.90733887 53.18481445 11.90991211 C51.90695068 11.91901611 50.62908691 11.92812012 49.3125 11.9375 C45.249375 11.958125 41.18625 11.97875 37 12 Z " fill="#ED0000" transform="translate(490,47)"/>
<path d="M0 0 C6.13152573 5.49024689 8.90477513 11.88582602 10.00390625 19.98046875 C10.36163253 27.81690997 8.63883242 35.14772083 3.93359375 41.51171875 C-4.74984831 50.88069571 -16.58902632 54.49854747 -29.0715332 55.5222168 C-32.94749203 55.65537091 -36.80550319 55.68639246 -40.68359375 55.65625 C-41.70215958 55.65168793 -41.70215958 55.65168793 -42.74130249 55.64703369 C-56.81064504 55.55386884 -71.06759551 54.64874024 -82.37109375 45.21875 C-90.13482181 37.13576583 -91.85746107 30.01287682 -91.68359375 18.91796875 C-91.01160712 10.96332705 -87.29887269 4.52185268 -81.37109375 -0.78125 C-60.36527234 -16.04661414 -20.63124059 -15.49892209 0 0 Z M-58.12109375 8.09375 C-62.80824536 14.6036828 -63.0118261 20.38757684 -62.37109375 28.21875 C-61.49125531 32.72884619 -59.98581931 35.99035677 -56.55859375 39.09375 C-49.08723745 44.0746542 -40.65006519 44.33817765 -31.9609375 42.7890625 C-26.72089969 41.15344376 -23.25078648 37.85216564 -20.37109375 33.21875 C-19.09683044 29.67398115 -19.16932859 26.08194984 -19.12109375 22.34375 C-19.08242188 20.55324219 -19.08242188 20.55324219 -19.04296875 18.7265625 C-19.48128712 14.04073036 -20.89545009 10.81848188 -24.08984375 7.35546875 C-24.9715625 6.63810547 -24.9715625 6.63810547 -25.87109375 5.90625 C-26.7528125 5.16955078 -26.7528125 5.16955078 -27.65234375 4.41796875 C-31.6445013 1.63253155 -36.02009226 2.00044755 -40.68359375 1.96875 C-41.43060547 1.948125 -42.17761719 1.9275 -42.94726562 1.90625 C-49.42511364 1.86075151 -53.52791935 3.29179494 -58.12109375 8.09375 Z " fill="#ED0000" transform="translate(366.37109375,54.78125)"/>
<path d="M0 0 C7.13438077 -0.22872479 14.26781289 -0.3860189 21.4050293 -0.49438477 C23.83116991 -0.53956821 26.25706648 -0.60093045 28.68237305 -0.67895508 C32.17557969 -0.78849814 35.66554205 -0.83924623 39.16015625 -0.87890625 C40.23959 -0.92535782 41.31902374 -0.97180939 42.4311676 -1.01966858 C49.81934089 -1.02458987 49.81934089 -1.02458987 53.17289734 1.88566589 C54.98295674 4.17641533 56.51739076 6.48726801 58 9 C58.93525513 10.36402954 58.93525513 10.36402954 59.8894043 11.75561523 C60.36289307 12.51559814 60.83638184 13.27558105 61.32421875 14.05859375 C62.14563354 15.36703247 62.14563354 15.36703247 62.98364258 16.7019043 C63.54591553 17.60465088 64.10818848 18.50739746 64.6875 19.4375 C65.91334186 21.37024892 67.13991678 23.30253308 68.3671875 25.234375 C70.69556041 28.91387051 72.9879662 32.61231285 75.2578125 36.328125 C76.27518471 37.94845505 77.29337082 39.56827445 78.3125 41.1875 C78.75489014 41.93507568 79.19728027 42.68265137 79.65307617 43.45288086 C83.24673943 49.07828791 86.54523645 50.42433199 93 52 C93 54.97 93 57.94 93 61 C75.84 61 58.68 61 41 61 C41 58.03 41 55.06 41 52 C44.63 51.34 48.26 50.68 52 50 C51.01 46.04 51.01 46.04 50 42 C44.78493967 42.04410199 39.57109601 42.11387935 34.35668945 42.20751953 C32.58269939 42.23575279 30.80858299 42.25695563 29.03442383 42.27099609 C26.48452968 42.29239381 23.93615834 42.33902435 21.38671875 42.390625 C20.19594978 42.39246796 20.19594978 42.39246796 18.98112488 42.39434814 C14.56212539 42.49285947 14.56212539 42.49285947 10.97583008 44.85058594 C9.79330505 47.06185104 9.79330505 47.06185104 10 50 C12.64 50.66 15.28 51.32 18 52 C18 54.97 18 57.94 18 61 C4.8 61 -8.4 61 -22 61 C-22 58.03 -22 55.06 -22 52 C-21.25234375 51.91363281 -20.5046875 51.82726562 -19.734375 51.73828125 C-18.74953125 51.59777344 -17.7646875 51.45726562 -16.75 51.3125 C-15.77546875 51.18488281 -14.8009375 51.05726562 -13.796875 50.92578125 C-8.63970243 49.21872832 -6.23670633 43.95324845 -3.46875 39.5078125 C-2.82292969 38.47269531 -2.17710937 37.43757813 -1.51171875 36.37109375 C-0.84785156 35.29988281 -0.18398438 34.22867188 0.5 33.125 C1.16386719 32.06152344 1.82773437 30.99804688 2.51171875 29.90234375 C4.35383085 26.94246302 6.18186039 23.97465482 8 21 C8.44859375 20.27006836 8.8971875 19.54013672 9.359375 18.78808594 C11.04780857 15.95966245 12 14.35719845 12 11 C6.06 10.01 6.06 10.01 0 9 C0 6.03 0 3.06 0 0 Z M30 14 C29.19907797 15.12811526 28.44650482 16.29062391 27.71484375 17.46484375 C27.26689453 18.18220703 26.81894531 18.89957031 26.35742188 19.63867188 C25.88884766 20.39728516 25.42027344 21.15589844 24.9375 21.9375 C24.46505859 22.69224609 23.99261719 23.44699219 23.50585938 24.22460938 C21.14999491 27.40424722 21.14999491 27.40424722 20 31 C26.93 31 33.86 31 41 31 C39.27738522 26.69346304 37.50068956 23.49739519 34.9375 19.6875 C33.86822266 18.08455078 33.86822266 18.08455078 32.77734375 16.44921875 C32.19082031 15.64097656 31.60429688 14.83273438 31 14 C30.67 14 30.34 14 30 14 Z " fill="#ED0000" transform="translate(607,47)"/>
<path d="M0 0 C0.99 0.33 1.98 0.66 3 1 C-3.64185748 19.34677025 -3.64185748 19.34677025 -12 24 C-15.00920815 25.30668965 -18.08556379 26.37677786 -21.1875 27.44140625 C-22.0975882 27.76140091 -23.00767639 28.08139557 -23.94534302 28.41108704 C-26.96089666 29.46935017 -29.980416 30.51579832 -33 31.5625 C-35.13164283 32.30856471 -37.26298487 33.05548933 -39.39404297 33.80322266 C-43.9145122 35.38796539 -48.43656723 36.96805791 -52.95996094 38.54443359 C-91.66955553 52.02701198 -91.66955553 52.02701198 -130.27313232 65.80914307 C-132.11979594 66.47556696 -133.96927451 67.13417469 -135.81884766 67.79248047 C-136.88280762 68.18064941 -137.94676758 68.56881836 -139.04296875 68.96875 C-139.94039795 69.29294922 -140.83782715 69.61714844 -141.76245117 69.95117188 C-144.0401262 71.01880875 -145.36361137 72.11219494 -147 74 C-145.69206725 80.26076632 -142.08088454 83.23195605 -137.5 87.3125 C-136.42165894 88.29827026 -136.42165894 88.29827026 -135.3215332 89.30395508 C-133.22538848 91.21533253 -131.11615118 93.11081935 -129 95 C-128.44489746 95.4959668 -127.88979492 95.99193359 -127.31787109 96.50292969 C-125.1920094 98.40015179 -123.06485882 100.29452079 -120.91796875 102.16796875 C-119.01847497 103.98235283 -117.50809441 105.85441458 -116 108 C-118.41936317 108.16249454 -120.82781859 108.28097817 -123.25 108.375 C-123.93191406 108.42527344 -124.61382812 108.47554688 -125.31640625 108.52734375 C-127.328125 108.5859375 -127.328125 108.5859375 -131 108 C-132.8828125 105.578125 -132.8828125 105.578125 -133.77929688 103.92529297 C-136.59144069 99.48997975 -140.87497606 96.01308293 -144.625 92.375 C-146.35098915 90.70007561 -148.07254591 89.02056834 -149.7890625 87.3359375 C-150.54912598 86.59907715 -151.30918945 85.8622168 -152.09228516 85.10302734 C-155.24921293 81.62289222 -156.31382621 78.79550426 -156.4375 74.125 C-156.47746094 73.30257812 -156.51742187 72.48015625 -156.55859375 71.6328125 C-155.76849727 67.90886127 -153.72269826 65.54232923 -151 63 C-148.40186675 61.61422077 -146.0559442 60.53024408 -143.328125 59.50390625 C-142.55809143 59.19767838 -141.78805786 58.8914505 -140.99468994 58.57594299 C-138.4190657 57.55561861 -135.83470414 56.55957334 -133.25 55.5625 C-131.40875673 54.83702044 -129.56828063 54.10959127 -127.72851562 53.38037109 C-123.69738458 51.7841617 -119.66312612 50.19620749 -115.62695312 48.61279297 C-105.41301659 44.59640114 -95.2388146 40.48057867 -85.0624733 36.37011051 C-80.85248383 34.6697652 -76.64012284 32.97540855 -72.42675781 31.28344727 C-52.3001249 23.18975698 -32.16573118 15.04497577 -12.5 5.875 C-10.9840625 5.17503906 -10.9840625 5.17503906 -9.4375 4.4609375 C-4.69577126 2.27842682 -4.69577126 2.27842682 0 0 Z " fill="#EE0000" transform="translate(156,0)"/>
</svg>
