<?xml version="1.0" encoding="UTF-8"?>
<svg version="1.1" xmlns="http://www.w3.org/2000/svg" width="64" height="64">
<path d="M0 0 C13.76090281 -1.36764801 13.76090281 -1.36764801 18.8203125 1.72265625 C21.09404519 4.0320398 23.05373908 6.41034704 25 9 C26.26249908 10.42409897 27.53284131 11.84130009 28.8125 13.25 C29.36550781 13.90097656 29.91851562 14.55195313 30.48828125 15.22265625 C31.7845807 16.74672925 33.13724891 18.22254258 34.5 19.6875 C36 22 36 22 35.7734375 24.421875 C34.94061093 27.19796356 34.08775473 28.46357329 32.125 30.5625 C31.50625 31.23539063 30.8875 31.90828125 30.25 32.6015625 C29.5075 33.39304688 28.765 34.18453125 28 35 C27.04017919 36.04811894 26.08194224 37.09768974 25.125 38.1484375 C17.64517902 46.35482098 17.64517902 46.35482098 16 48 C13.30345146 48.07319621 10.63308542 48.09242537 7.9375 48.0625 C6.79958008 48.05573242 6.79958008 48.05573242 5.63867188 48.04882812 C3.75908129 48.0370068 1.87953101 48.01907078 0 48 C-0.81640625 46.36328125 -0.81640625 46.36328125 -1 44 C0.62197685 41.85850729 2.18170866 40.07513924 4.0625 38.1875 C5.08153494 37.12446976 6.09976884 36.06067103 7.1171875 34.99609375 C7.8611377 34.22821533 7.8611377 34.22821533 8.62011719 33.44482422 C11.20647251 30.73674729 13.59088335 27.86489547 16 25 C14.30935414 20.71563036 11.18644695 17.77624401 8.0625 14.5 C0.35305178 6.35660679 0.35305178 6.35660679 -1 4 C-0.6875 1.75 -0.6875 1.75 0 0 Z " fill="#000000" transform="translate(28,8)"/>
<path d="M0 0 C2.56428515 -0.13559675 5.12135216 -0.23433188 7.6875 -0.3125 C8.40873047 -0.35439453 9.12996094 -0.39628906 9.87304688 -0.43945312 C14.00205528 -0.53372272 15.50080606 -0.41101921 18.80859375 2.3125 C19.53175781 3.199375 20.25492188 4.08625 21 5 C21.58523437 5.57363281 22.17046875 6.14726562 22.7734375 6.73828125 C35.33709049 19.08743285 35.33709049 19.08743285 37 25 C33.15666552 29.42415994 29.28347383 33.82074616 25.375 38.1875 C24.66085938 38.98542969 23.94671875 39.78335938 23.2109375 40.60546875 C22.48132813 41.39566406 21.75171875 42.18585937 21 43 C20.25621094 43.9178125 19.51242188 44.835625 18.74609375 45.78125 C14.99604896 48.81115816 12.34775291 48.58320281 7.6875 48.3125 C6.94693359 48.28994141 6.20636719 48.26738281 5.44335938 48.24414062 C3.62802643 48.1855815 1.81374319 48.09590886 0 48 C-0.39453125 45.94140625 -0.39453125 45.94140625 0 43 C1.83864299 40.39122869 4.06219773 38.19258506 6.3125 35.9375 C7.49765295 34.71896246 8.6812932 33.49895151 9.86328125 32.27734375 C10.4145166 31.71128418 10.96575195 31.14522461 11.53369141 30.56201172 C13.17862798 28.80971332 14.63405458 26.97741558 16 25 C14.62818803 21.97532189 13.03464311 19.71113791 10.8125 17.25 C10.19890625 16.55777344 9.5853125 15.86554687 8.953125 15.15234375 C7.64673049 13.712697 6.32352865 12.28813189 4.984375 10.87890625 C4.03304688 9.85603516 4.03304688 9.85603516 3.0625 8.8125 C2.47597656 8.20019531 1.88945312 7.58789062 1.28515625 6.95703125 C-0.32998777 4.49749583 -0.24416836 2.8851731 0 0 Z " fill="#000000" transform="translate(0,8)"/>
</svg>
