<?xml version="1.0" encoding="UTF-8"?>
<svg version="1.1" xmlns="http://www.w3.org/2000/svg" width="64" height="64">
<path d="M0 0 C5.14338337 2.9958329 8.76038445 7.90615335 10.625 13.5 C11.59225468 23.97239198 8.3642319 30.97054864 2.625 39.5 C3.45644531 39.82613281 4.28789063 40.15226562 5.14453125 40.48828125 C6.23121094 40.92527344 7.31789062 41.36226562 8.4375 41.8125 C9.51644531 42.24175781 10.59539063 42.67101563 11.70703125 43.11328125 C14.34205368 44.36553421 15.84892627 45.23520799 17.625 47.5 C18.51003311 50.15509932 18.78583635 51.83655004 18.125 54.5625 C14.15910124 59.68511923 7.77652864 61.46530457 1.625 62.5 C-2.33737609 62.79864667 -6.27773754 62.82489782 -10.25 62.8125 C-11.27480469 62.82861328 -12.29960937 62.84472656 -13.35546875 62.86132812 C-21.46975444 62.86648333 -30.91625972 61.94956211 -37.375 56.5 C-38.875 53.625 -38.875 53.625 -39.375 50.5 C-38.07101062 46.58803187 -36.03192376 45.12528663 -32.5 43.3125 C-29.50221655 41.93116841 -26.44400159 40.71369923 -23.375 39.5 C-23.86871094 38.66855469 -24.36242188 37.83710937 -24.87109375 36.98046875 C-25.83208984 35.35044922 -25.83208984 35.35044922 -26.8125 33.6875 C-27.45058594 32.60855469 -28.08867187 31.52960937 -28.74609375 30.41796875 C-31.85740734 24.84446454 -31.98306867 19.76053796 -31.375 13.5 C-29.62764061 7.55897808 -26.38773929 3.97822726 -21.375 0.5 C-14.80807307 -2.62920679 -6.7281114 -2.92977491 0 0 Z M-18.375 14.5 C-19.62221924 18.16370652 -19.73797705 19.73947666 -18.0625 23.25 C-16.42361359 25.54566731 -16.42361359 25.54566731 -14.375 27.5 C-8.8107813 28.11380334 -8.8107813 28.11380334 -3.9375 25.875 C-2.00268868 22.9340868 -1.44690807 21.02349544 -1.375 17.5 C-2.97911848 13.97093933 -4.11659362 12.67227092 -7.375 10.5 C-12.41736748 9.84229989 -14.92244918 10.75151625 -18.375 14.5 Z " fill="#E61F14" transform="translate(42.375,1.5)"/>
<path d="M0 0 C2.140625 2.65234375 2.140625 2.65234375 4.25 5.9375 C4.95640625 7.01902344 5.6628125 8.10054687 6.390625 9.21484375 C8 12 8 12 8 14 C9.32 14 10.64 14 12 14 C12.38285156 12.92685547 12.38285156 12.92685547 12.7734375 11.83203125 C14.0876888 8.79753382 15.69496016 6.36811089 17.625 3.6875 C18.25664063 2.80449219 18.88828125 1.92148437 19.5390625 1.01171875 C20.02117188 0.34785156 20.50328125 -0.31601562 21 -1 C27.09900565 -0.08394382 32.26951945 0.74256751 37 5 C38.50274628 8.00549256 39.24509275 9.80954948 38.5625 13.125 C34.39382811 18.12740627 28.22125081 19.95357721 22 21 C18.03762391 21.29864667 14.09726246 21.32489782 10.125 21.3125 C9.10019531 21.32861328 8.07539063 21.34472656 7.01953125 21.36132812 C-1.09475444 21.36648333 -10.54125972 20.44956211 -17 15 C-18.5 12.125 -18.5 12.125 -19 9 C-17.68821082 5.06463245 -15.60749103 3.59207011 -12.0625 1.75 C-4.20116426 -1.9458881 -4.20116426 -1.9458881 0 0 Z " fill="#61DD55" transform="translate(22,43)"/>
<path d="M0 0 C0 3.96 0 7.92 0 12 C-1.423125 12.61875 -1.423125 12.61875 -2.875 13.25 C-5.96546609 14.72068391 -5.96546609 14.72068391 -7.4375 16.8125 C-8.22172343 19.86225778 -7.8349927 21.98118023 -7 25 C-4.82766454 27.99989183 -3.81636273 28.04590932 0 29 C0 38.24 0 47.48 0 57 C-0.66 57 -1.32 57 -2 57 C-3.48405947 54.90236808 -4.84769978 52.81248043 -6.1875 50.625 C-6.99426435 49.33349085 -7.80287351 48.04313234 -8.61328125 46.75390625 C-9.01498535 46.11469238 -9.41668945 45.47547852 -9.83056641 44.81689453 C-11.42721626 42.33625398 -13.14387835 39.95063584 -14.875 37.5625 C-20.0396354 30.18102575 -22.15546047 24.02297786 -21 15 C-19.21987935 9.05620733 -16.02899576 5.48950726 -11 2 C-6.82473228 -0.19201556 -5.10516989 0 0 0 Z " fill="#FC3018" transform="translate(32,0)"/>
<path d="M0 0 C6.04883286 0.58096135 11.39910351 1.85919316 16 6 C17.50274628 9.00549256 18.24509275 10.80954948 17.5625 14.125 C13.50709619 18.99148458 7.13479533 21.19846895 1 22 C-3.00669886 22.14784867 -6.99295396 22.12021138 -11 22 C-11.73856027 15.98868031 -9.40545901 12.86216982 -6.0625 8.1875 C-5.59392578 7.50751953 -5.12535156 6.82753906 -4.64257812 6.12695312 C-1.29309558 1.29309558 -1.29309558 1.29309558 0 0 Z " fill="#17C378" transform="translate(43,42)"/>
</svg>
