<?xml version="1.0" encoding="UTF-8"?>
<svg version="1.1" xmlns="http://www.w3.org/2000/svg" width="64" height="64">
<path d="M0 0 C8.34468007 4.97590182 13.53387008 11.86345977 16.109375 21.2578125 C17.10789012 32.35758522 16.45884702 41.9922991 9.359375 51.0703125 C3.70168013 57.1280464 -3.34488592 60.84888618 -11.625 61.59375 C-22.35447774 61.83515993 -31.19802606 60.58332943 -39.359375 52.9609375 C-46.75303791 44.73737365 -48.47252567 36.02335615 -48.203125 25.24609375 C-47.72879865 16.86039919 -44.11592977 9.8548755 -37.890625 4.2578125 C-27.15195714 -3.81766573 -12.32399863 -5.91386512 0 0 Z " fill="#EF5261" transform="translate(47.890625,2.7421875)"/>
<path d="M0 0 C2.875 2.125 2.875 2.125 5 5 C5.4375 8.1875 5.4375 8.1875 5 11 C4.34 11.66 3.68 12.32 3 13 C3.21671005 17.87597608 4.62396296 20.53018415 8 24 C10.86382698 26.20294383 12.12055486 27.07994956 15.75 26.75 C17.9440983 26.2049729 17.9440983 26.2049729 19 25 C23.03199561 24.45018242 24.55532291 24.67132563 27.875 27.125 C30 30 30 30 30.625 33.0625 C30 36 30 36 27.9375 38.375 C24.14603239 40.47240761 22.29712021 40.64456803 18 40 C5.24712416 35.19351839 -4.07224222 23.85551556 -10 12 C-10.57395143 4.88300221 -10.57395143 4.88300221 -8.375 1.5 C-5.23686002 -0.48198314 -3.65126535 -0.67064058 0 0 Z " fill="#EEE9E9" transform="translate(22,12)"/>
</svg>
